<?xml version="1.0" standalone="no"?>
<!DOCTYPE svg PUBLIC "-//W3C//DTD SVG 20010904//EN"
 "http://www.w3.org/TR/2001/REC-SVG-20010904/DTD/svg10.dtd">
<svg version="1.0" xmlns="http://www.w3.org/2000/svg"
 width="512.000000pt" height="512.000000pt" viewBox="0 0 512.000000 512.000000"
 preserveAspectRatio="xMidYMid meet">

<g transform="translate(0.000000,512.000000) scale(0.100000,-0.100000)"
fill="#000000" stroke="none">
<path d="M757 5105 c-363 -73 -673 -385 -742 -748 -23 -119 -23 -3475 0 -3594
71 -376 399 -694 775 -753 52 -8 227 -10 565 -8 472 3 491 4 517 23 56 42 58
58 58 397 l0 310 -67 -8 c-106 -14 -338 -8 -422 10 -41 8 -102 29 -135 44
-120 57 -184 127 -246 272 -73 166 -173 300 -267 355 -40 24 -113 99 -113 117
0 5 17 16 37 24 55 23 132 11 230 -37 101 -50 170 -114 246 -230 67 -103 150
-183 232 -224 58 -29 64 -30 205 -30 143 0 158 2 267 42 38 14 42 18 48 59 14
98 77 228 134 278 11 11 21 22 21 26 0 4 -30 10 -67 14 -396 40 -734 214 -899
463 -110 165 -174 379 -196 649 -17 218 8 391 78 551 31 70 106 187 147 231
l31 32 -23 88 c-44 166 -38 329 18 511 l27 86 49 3 c67 5 138 -12 264 -63 132
-53 230 -102 320 -160 l70 -46 78 20 c354 90 772 90 1125 0 l78 -19 82 52
c194 121 438 218 552 218 l65 0 30 -97 c59 -190 64 -336 20 -506 l-23 -87 31
-32 c42 -44 116 -161 148 -234 69 -155 94 -333 77 -548 -24 -298 -96 -519
-228 -693 -169 -221 -496 -379 -866 -418 -38 -4 -68 -9 -68 -12 0 -3 17 -24
38 -48 44 -50 85 -129 109 -212 14 -50 18 -129 22 -568 6 -549 6 -546 60 -582
24 -17 68 -18 526 -21 534 -3 581 0 715 49 311 114 555 397 615 712 23 119 23
3475 0 3594 -60 314 -292 585 -606 708 -145 57 -71 55 -1948 54 -1407 -1
-1739 -3 -1794 -14z"/>
<path d="M900 1472 c0 -25 19 -42 47 -42 31 0 42 29 18 46 -28 20 -65 18 -65
-4z"/>
<path d="M1009 1394 c-21 -25 8 -69 46 -69 39 0 44 27 11 60 -29 29 -39 31
-57 9z"/>
<path d="M1118 1269 c-39 -22 -1 -104 45 -97 32 4 35 53 6 84 -25 27 -27 27
-51 13z"/>
<path d="M1232 1118 c-20 -20 -13 -55 14 -77 32 -25 47 -26 68 -5 22 22 20 41
-9 69 -26 27 -54 32 -73 13z"/>
<path d="M1403 1009 c-35 -36 2 -79 67 -79 23 0 31 5 36 26 4 17 1 31 -8 40
-20 21 -80 28 -95 13z"/>
<path d="M1816 997 c-12 -9 -17 -23 -14 -42 4 -35 33 -44 79 -25 31 13 39 46
17 68 -16 16 -60 15 -82 -1z"/>
<path d="M1611 966 c-7 -8 -11 -25 -9 -38 3 -20 8 -23 52 -23 56 0 80 21 60
53 -15 23 -86 29 -103 8z"/>
</g>
</svg>
