<?xml version="1.0" standalone="no"?>
<!DOCTYPE svg PUBLIC "-//W3C//DTD SVG 20010904//EN"
 "http://www.w3.org/TR/2001/REC-SVG-20010904/DTD/svg10.dtd">
<svg version="1.0" xmlns="http://www.w3.org/2000/svg"
 width="512.000000pt" height="512.000000pt" viewBox="0 0 512.000000 512.000000"
 preserveAspectRatio="xMidYMid meet">

<g transform="translate(0.000000,512.000000) scale(0.100000,-0.100000)"
fill="#000000" stroke="none">
<path d="M595 5109 c-151 -22 -270 -84 -386 -199 -69 -68 -94 -102 -127 -170
-84 -171 -77 29 -77 -2180 0 -2209 -7 -2009 77 -2180 59 -120 178 -239 298
-298 171 -84 -29 -77 2180 -77 2209 0 2009 -7 2180 77 68 33 102 59 171 127
68 69 94 103 127 171 84 171 77 -29 77 2180 0 2209 7 2009 -77 2180 -59 120
-178 239 -298 298 -172 84 35 77 -2145 78 -1072 1 -1967 -2 -2000 -7z m943
-967 c205 -64 340 -281 303 -487 -50 -275 -326 -435 -587 -342 -100 36 -196
127 -246 233 -60 128 -47 297 32 417 58 87 165 164 257 186 67 16 177 12 241
-7z m1968 -1013 c185 -25 340 -105 438 -224 56 -70 127 -212 151 -305 47 -179
48 -193 52 -903 l4 -677 -30 -30 -29 -30 -286 0 -286 0 -32 29 -33 29 -5 619
-5 618 -26 68 c-63 160 -155 227 -314 227 -167 0 -281 -91 -343 -274 l-27 -81
-5 -588 -5 -589 -33 -29 -32 -29 -276 0 -276 0 -29 29 -29 29 0 1011 0 1011
29 32 29 33 269 3 c254 2 270 1 301 -18 43 -26 52 -54 52 -157 l0 -85 39 49
c99 126 246 206 426 232 87 12 222 13 311 0z m-1821 -35 c68 -32 65 25 65
-1064 0 -851 -2 -985 -15 -1010 -31 -59 -35 -60 -322 -60 -182 0 -270 4 -288
12 -57 26 -55 -19 -55 1065 0 1105 -5 1029 64 1059 49 21 506 20 551 -2z"/>
</g>
</svg>
