<?xml version="1.0" standalone="no"?>
<!DOCTYPE svg PUBLIC "-//W3C//DTD SVG 20010904//EN"
 "http://www.w3.org/TR/2001/REC-SVG-20010904/DTD/svg10.dtd">
<svg version="1.0" xmlns="http://www.w3.org/2000/svg"
 width="512.000000pt" height="512.000000pt" viewBox="0 0 512.000000 512.000000"
 preserveAspectRatio="xMidYMid meet">

<g transform="translate(0.000000,512.000000) scale(0.100000,-0.100000)"
fill="#000000" stroke="none">
<path d="M0 2560 l0 -2560 2560 0 2560 0 0 2560 0 2560 -2560 0 -2560 0 0
-2560z m3044 2518 c-4 -6 -3 -8 3 -5 11 7 86 -66 78 -76 -3 -4 -2 -5 2 -2 10
8 53 -37 46 -48 -3 -6 -1 -7 5 -3 17 10 216 -189 206 -206 -4 -7 -3 -10 1 -5
11 10 66 -43 58 -56 -3 -6 -1 -7 4 -4 6 4 190 -179 409 -406 219 -226 450
-465 513 -529 l114 -118 -724 3 -724 2 -3 738 c-1 501 1 736 8 732 6 -4 7 -11
4 -17z m-1119 -2863 c31 -12 69 -37 100 -69 66 -66 90 -137 82 -236 -16 -190
-144 -280 -399 -280 l-78 0 0 -165 0 -165 -125 0 -125 0 0 463 c0 255 3 467 8
471 4 4 115 6 247 4 202 -4 248 -8 290 -23z m775 0 c182 -58 288 -171 319
-339 41 -226 -43 -427 -216 -515 -105 -53 -159 -61 -392 -61 l-211 0 0 463 c0
255 3 467 8 471 4 5 104 6 222 3 167 -3 227 -8 270 -22z m1118 -82 l3 -103
-216 0 -215 0 0 -75 0 -75 170 0 170 0 0 -100 0 -100 -170 0 -170 0 0 -190 0
-190 -120 0 -120 0 0 470 0 470 333 -2 332 -3 3 -102z"/>
<path d="M3056 4997 c3 -10 9 -15 12 -12 3 3 0 11 -7 18 -10 9 -11 8 -5 -6z"/>
<path d="M3136 4917 c3 -10 9 -15 12 -12 3 3 0 11 -7 18 -10 9 -11 8 -5 -6z"/>
<path d="M3230 4856 c0 -2 8 -10 18 -17 15 -13 16 -12 3 4 -13 16 -21 21 -21
13z"/>
<path d="M3466 4602 c-3 -5 1 -9 9 -9 8 0 12 4 9 9 -3 4 -7 8 -9 8 -2 0 -6 -4
-9 -8z"/>
<path d="M3960 4107 c0 -2 6 -10 14 -16 11 -9 16 -9 22 1 4 7 4 10 -1 6 -4 -4
-14 -3 -22 3 -7 6 -13 9 -13 6z"/>
<path d="M4036 4032 c-3 -5 1 -9 9 -9 8 0 12 4 9 9 -3 4 -7 8 -9 8 -2 0 -6 -4
-9 -8z"/>
<path d="M4243 3815 c0 -8 4 -12 9 -9 5 3 6 10 3 15 -9 13 -12 11 -12 -6z"/>
<path d="M1630 1935 l0 -95 74 0 c40 0 87 5 105 11 68 24 80 122 18 159 -25
16 -50 20 -114 20 l-83 0 0 -95z"/>
<path d="M2440 1770 l0 -260 73 0 c184 0 274 90 271 272 -3 159 -107 248 -289
248 l-55 0 0 -260z"/>
</g>
</svg>
